<svg width="20" height="22" viewBox="0 0 20 22" fill="none" xmlns="http://www.w3.org/2000/svg">
<path id="Vector" d="M6.49996 2.83334C6.19054 2.83334 5.89379 2.95626 5.675 3.17505C5.45621 3.39384 5.33329 3.69059 5.33329 4.00001C5.33329 4.30942 5.45621 4.60617 5.675 4.82496C5.89379 5.04376 6.19054 5.16667 6.49996 5.16667C6.80938 5.16667 7.10612 5.04376 7.32492 4.82496C7.54371 4.60617 7.66663 4.30942 7.66663 4.00001C7.66663 3.69059 7.54371 3.39384 7.32492 3.17505C7.10612 2.95626 6.80938 2.83334 6.49996 2.83334ZM3.19829 2.83334C3.43933 2.15022 3.88632 1.55868 4.47766 1.14026C5.069 0.721842 5.77556 0.497147 6.49996 0.497147C7.22436 0.497147 7.93092 0.721842 8.52226 1.14026C9.1136 1.55868 9.56059 2.15022 9.80163 2.83334H18.1666C18.476 2.83334 18.7728 2.95626 18.9916 3.17505C19.2104 3.39384 19.3333 3.69059 19.3333 4.00001C19.3333 4.30942 19.2104 4.60617 18.9916 4.82496C18.7728 5.04376 18.476 5.16667 18.1666 5.16667H9.80163C9.56059 5.84979 9.1136 6.44133 8.52226 6.85975C7.93092 7.27817 7.22436 7.50286 6.49996 7.50286C5.77556 7.50286 5.069 7.27817 4.47766 6.85975C3.88632 6.44133 3.43933 5.84979 3.19829 5.16667H1.83329C1.52387 5.16667 1.22713 5.04376 1.00833 4.82496C0.789543 4.60617 0.666626 4.30942 0.666626 4.00001C0.666626 3.69059 0.789543 3.39384 1.00833 3.17505C1.22713 2.95626 1.52387 2.83334 1.83329 2.83334H3.19829ZM13.5 9.83334C13.1905 9.83334 12.8938 9.95625 12.675 10.175C12.4562 10.3938 12.3333 10.6906 12.3333 11C12.3333 11.3094 12.4562 11.6062 12.675 11.825C12.8938 12.0438 13.1905 12.1667 13.5 12.1667C13.8094 12.1667 14.1061 12.0438 14.3249 11.825C14.5437 11.6062 14.6666 11.3094 14.6666 11C14.6666 10.6906 14.5437 10.3938 14.3249 10.175C14.1061 9.95625 13.8094 9.83334 13.5 9.83334ZM10.1983 9.83334C10.4393 9.15022 10.8863 8.55868 11.4777 8.14026C12.069 7.72184 12.7756 7.49715 13.5 7.49715C14.2244 7.49715 14.9309 7.72184 15.5223 8.14026C16.1136 8.55868 16.5606 9.15022 16.8016 9.83334H18.1666C18.476 9.83334 18.7728 9.95625 18.9916 10.175C19.2104 10.3938 19.3333 10.6906 19.3333 11C19.3333 11.3094 19.2104 11.6062 18.9916 11.825C18.7728 12.0438 18.476 12.1667 18.1666 12.1667H16.8016C16.5606 12.8498 16.1136 13.4413 15.5223 13.8598C14.9309 14.2782 14.2244 14.5029 13.5 14.5029C12.7756 14.5029 12.069 14.2782 11.4777 13.8598C10.8863 13.4413 10.4393 12.8498 10.1983 12.1667H1.83329C1.52387 12.1667 1.22713 12.0438 1.00833 11.825C0.789543 11.6062 0.666626 11.3094 0.666626 11C0.666626 10.6906 0.789543 10.3938 1.00833 10.175C1.22713 9.95625 1.52387 9.83334 1.83329 9.83334H10.1983ZM6.49996 16.8333C6.19054 16.8333 5.89379 16.9563 5.675 17.175C5.45621 17.3938 5.33329 17.6906 5.33329 18C5.33329 18.3094 5.45621 18.6062 5.675 18.825C5.89379 19.0438 6.19054 19.1667 6.49996 19.1667C6.80938 19.1667 7.10612 19.0438 7.32492 18.825C7.54371 18.6062 7.66663 18.3094 7.66663 18C7.66663 17.6906 7.54371 17.3938 7.32492 17.175C7.10612 16.9563 6.80938 16.8333 6.49996 16.8333ZM3.19829 16.8333C3.43933 16.1502 3.88632 15.5587 4.47766 15.1403C5.069 14.7218 5.77556 14.4971 6.49996 14.4971C7.22436 14.4971 7.93092 14.7218 8.52226 15.1403C9.1136 15.5587 9.56059 16.1502 9.80163 16.8333H18.1666C18.476 16.8333 18.7728 16.9563 18.9916 17.175C19.2104 17.3938 19.3333 17.6906 19.3333 18C19.3333 18.3094 19.2104 18.6062 18.9916 18.825C18.7728 19.0438 18.476 19.1667 18.1666 19.1667H9.80163C9.56059 19.8498 9.1136 20.4413 8.52226 20.8598C7.93092 21.2782 7.22436 21.5029 6.49996 21.5029C5.77556 21.5029 5.069 21.2782 4.47766 20.8598C3.88632 20.4413 3.43933 19.8498 3.19829 19.1667H1.83329C1.52387 19.1667 1.22713 19.0438 1.00833 18.825C0.789543 18.6062 0.666626 18.3094 0.666626 18C0.666626 17.6906 0.789543 17.3938 1.00833 17.175C1.22713 16.9563 1.52387 16.8333 1.83329 16.8333H3.19829Z" fill="black" fill-opacity="0.75"/>
</svg>
